HIERARCHY
ROOT Hips
{
  OFFSET -35.2597 29.1586 114.425
  CHANNELS 6 Xposition Yposition Zposition Zrotation Xrotation Yrotation
  JOINT LeftUpLeg
  {
    OFFSET 8.64259 1.95398 -2.38835
    CHANNELS 3 Zrotation Xrotation Yrotation
    JOINT LeftLeg
    {
      OFFSET 43.7702 0 0
      CHANNELS 3 Zrotation Xrotation Yrotation
      JOINT LeftFoot
      {
        OFFSET 40.6238 0 0
        CHANNELS 3 Zrotation Xrotation Yrotation
        JOINT LeftToeBase
        {
          OFFSET 12.7242 0 0
          CHANNELS 3 Zrotation Xrotation Yrotation
          End Site
          {
            OFFSET 0 0 0
          }
        }
      }
    }
  }
  JOINT RightUpLeg
  {
    OFFSET -8.2249 1.95398 -2.59336
    CHANNELS 3 Zrotation Xrotation Yrotation
    JOINT RightLeg
    {
      OFFSET 43.5653 0 0
      CHANNELS 3 Zrotation Xrotation Yrotation
      JOINT RightFoot
      {
        OFFSET 40.6238 0 0
        CHANNELS 3 Zrotation Xrotation Yrotation
        JOINT RightToeBase
        {
          OFFSET 12.7242 0 0
          CHANNELS 3 Zrotation Xrotation Yrotation
          End Site
          {
            OFFSET 0 0 0
          }
        }
      }
    }
  }
  JOINT Spine
  {
    OFFSET 0.165834 0.87714 6.61349
    CHANNELS 3 Zrotation Xrotation Yrotation
    JOINT Spine1
    {
      OFFSET 7.38963 1.71661e-005 0
      CHANNELS 3 Zrotation Xrotation Yrotation
      JOINT Spine2
      {
        OFFSET 11.9445 1.14441e-005 0
        CHANNELS 3 Zrotation Xrotation Yrotation
        JOINT Spine3
        {
          OFFSET 14.7254 4.19617e-005 0
          CHANNELS 3 Zrotation Xrotation Yrotation
          JOINT Spine4
          {
            OFFSET 10.9679 0 0
            CHANNELS 3 Zrotation Xrotation Yrotation
            JOINT RightShoulder
            {
              OFFSET 2.46616 -1.6653 3.69651
              CHANNELS 3 Zrotation Xrotation Yrotation
              JOINT RightArm
              {
                OFFSET 13.0012 0 0
                CHANNELS 3 Zrotation Xrotation Yrotation
                JOINT RightForeArm
                {
                  OFFSET 28.7848 1.62311e-005 0
                  CHANNELS 3 Zrotation Xrotation Yrotation
                  JOINT RightHand
                  {
                    OFFSET 26.5688 1.62095e-005 0
                    CHANNELS 3 Zrotation Xrotation Yrotation
                    End Site
                    {
                      OFFSET 0 0 0
                    }
                  }
                }
              }
            }
            JOINT LeftShoulder
            {
              OFFSET 2.38034 -1.29275 -3.7523
              CHANNELS 3 Zrotation Xrotation Yrotation
              JOINT LeftArm
              {
                OFFSET 16.3182 6.07031e-005 0
                CHANNELS 3 Zrotation Xrotation Yrotation
                JOINT LeftForeArm
                {
                  OFFSET 27.0901 0 0
                  CHANNELS 3 Zrotation Xrotation Yrotation
                  JOINT LeftHand
                  {
                    OFFSET 24.5451 1.51738e-005 0
                    CHANNELS 3 Zrotation Xrotation Yrotation
                    End Site
                    {
                      OFFSET 0 0 0
                    }
                  }
                }
              }
            }
            JOINT Neck
            {
              OFFSET 5.0226 -0.0266342 0
              CHANNELS 3 Zrotation Xrotation Yrotation
              JOINT Head
              {
                OFFSET 6.69364 2.86102e-005 0
                CHANNELS 3 Zrotation Xrotation Yrotation
                End Site
                {
                  OFFSET 0 0 0
                }
              }
            }
          }
        }
      }
    }
  }
}
MOTION
Frames:	7
Frame Time:	0.0416667
5.94073 73.3644 -27.3701 82.3494 46.1004 95.6361 -161.371 56.5372 81.0368 -92.3517 10.6249 1.28557 94.9356 25.0663 2.17808 31.6789 -0.162559 3.47888 170.02 41.8331 100.273 -93.2012 1.82911 -2.00168 99.8921 -28.5205 -1.41706 39.1178 -4.30148 0.0761404 0.331874 10.5475 -89.7114 5.77658 0.783949 0.546182 -5.89426 0.80721 0.511137 -28.4296 0.583554 0.756539 -8.41701 0.583558 0.756525 88.5759 -22.5221 -113.125 18.8242 17.939 -71.0162 -5.87815 -49.5053 -5.82351 -60.7699 14.3142 -29.6029 -89.9815 -34.4466 74.7883 -24.9603 -2.53473 -91.4001 8.51411 72.3695 -9.61142 60.8578 -1.50926 -6.67452 18.0064 -0.00377622 -1.81621 4.91679 0.580745 1.00622 
11.6095 76.0635 -33.1705 78.6641 46.9542 97.5796 -163.919 48.6381 83.7906 -86.9837 9.92723 0.769535 101.343 28.671 -1.10711 33.7972 0.24172 5.091 170.75 39.8546 99.4135 -92.3247 -1.7228 -2.10393 86.4889 -21.0001 -8.39779 47.3122 -8.03602 4.78648 0.412551 10.1872 -89.6113 6.49575 0.989202 0.729583 -5.17499 1.02037 0.685324 -27.7103 0.724224 0.993144 -7.69768 0.724229 0.993141 89.0194 -21.6726 -112.599 20.5536 21.0711 -49.01 -33.0875 -36.5236 -46.3871 -58.1248 10.9452 -25.0108 -89.5902 -34.5863 75.5247 -24.0625 -2.53107 -97.1683 10.0154 75.2807 -11.1147 62.113 -3.95122 -10.4304 17.6047 -0.863135 -2.51864 6.28173 -0.0469337 0.826554 
17.6026 78.9226 -39.2389 77.2444 47.5377 98.328 -165.936 39.3027 86.4978 -80.0909 9.96363 0.117752 102.464 30.102 -0.897712 37.5705 1.68688 6.48836 172.731 40.2402 98.6072 -94.3757 -4.94595 -2.51896 71.3358 -8.29484 -6.7244 39.7866 -6.16944 8.88396 0.299301 10.0057 -89.537 6.8585 0.795895 0.87961 -4.81247 0.833858 0.843725 -27.3462 0.494765 1.07813 -7.33352 0.494764 1.07813 88.5279 -22.8569 -113.053 22.2461 22.634 -30.4719 -39.6711 -22.4781 -65.1491 -55.7905 12.479 -28.7405 -89.0004 -36.3353 77.0781 -23.4574 -2.85453 -101.319 10.856 76.5236 -11.9564 64.9859 -6.95265 -14.7126 18.5508 -0.773764 -2.94154 6.25075 0.110304 -0.339507 
23.8395 81.8095 -45.6039 75.3745 47.9583 100.404 -167.208 31.0912 89.5035 -72.5807 11.929 -0.378543 98.1169 28.7026 1.63475 43.634 4.99969 6.17656 174.233 41.7611 99.3064 -95.9051 -9.74831 -2.8604 67.8546 -5.63396 -6.10221 19.9472 -0.223137 10.7205 0.0929897 9.72749 -89.5212 7.41626 0.393098 0.925045 -4.25494 0.433436 0.906838 -26.7875 0.0969146 1.00041 -6.77487 0.0969359 1.00042 86.754 -27.684 -114.261 23.2085 23.5318 -8.83355 -48.4034 -13.2341 -79.6018 -54.6922 15.3309 -34.6985 -88.5068 -35.396 77.6992 -22.797 -3.49053 -104.638 13.4646 79.3152 -14.5662 66.9286 -8.42097 -16.3902 17.934 -0.806828 -6.0381 7.46077 1.0195 0.490691 
30.4931 84.319 -51.9672 71.5732 48.759 103.372 -168.213 23.4684 91.5588 -63.2028 13.9695 -0.853597 93.2818 26.3526 2.90149 47.5462 6.80309 6.88526 173.447 44.5746 100.777 -92.1783 -4.63271 -2.38016 75.2267 -10.4008 -6.87256 26.2588 -1.69129 8.79665 -0.245317 9.27067 -89.576 8.33293 -0.302721 0.856534 -3.33826 -0.264733 0.869016 -25.872 -0.54615 0.725962 -5.85933 -0.54614 0.725963 86.2641 -32.0017 -113.134 24.0663 21.0504 16.3235 -51.4453 -4.27831 -88.9622 -48.3735 18.2569 -45.0447 -87.6904 -33.5684 78.6986 -22.4415 -3.30065 -108.157 16.4199 81.3293 -17.5233 71.2463 -9.98228 -17.5641 18.3132 -0.634481 -6.8634 6.78042 1.4702 0.822596 
36.8532 86.7391 -59.0359 70.6987 48.049 106.08 -168.13 14.2253 95.0655 -52.1786 14.9623 -1.11782 85.5367 21.4724 4.7459 53.801 10.184 5.87388 173.357 48.2472 102.675 -84.9602 -2.54984 -1.57284 79.1815 -12.4847 -5.57676 25.6487 -0.92948 7.00797 -0.368515 9.00775 -89.9736 8.86078 -0.723257 0.0994546 -2.80995 -0.718205 0.131181 -25.3469 -0.719714 -0.122533 -5.33426 -0.719721 -0.122537 87.7645 -31.5246 -110.497 27.2641 13.2993 37.5514 -52.4924 -1.85395 -91.0839 -49.0313 19.6191 -47.2357 -86.9734 -32.2199 79.685 -21.8216 -4.12552 -109.095 27.6796 79.0397 -29.0169 69.7753 -12.4688 -21.2974 20.146 0.460262 -4.37461 4.8391 1.7698 -0.403446 
43.5416 89.0057 -66.7086 71.9259 46.845 106.895 -167.654 4.18722 97.9019 -40.3262 17.8654 -1.00909 73.1104 12.3045 6.07016 64.8819 15.4062 3.05291 174.082 51.1277 103.05 -74.22 -5.29423 -0.615461 81.4273 -14.1741 -5.89665 24.8521 -1.00748 8.13461 -0.425508 8.91353 -90.4417 9.04158 -1.04597 -0.800811 -2.62918 -1.08019 -0.754011 -25.1643 -0.756963 -1.07814 -5.15161 -0.756947 -1.07814 88.1175 -29.6044 -110.643 33.9102 6.5604 51.5033 -48.5579 -6.36342 -87.046 -51.6364 18.6577 -43.1495 -87.0799 -32.7939 79.631 -21.473 -3.54199 -99.5929 55.1878 68.7379 -57.9292 67.5045 -11.4398 -20.5742 22.8848 2.32162 -0.988531 1.84291 2.52544 -0.909755 
